<mxfile host="app.diagrams.net" modified="2021-03-04T23:27:05.649Z" agent="5.0 (Windows NT 10.0; Win64; x64) AppleWebKit/537.36 (KHTML, like Gecko) Chrome/89.0.4389.72 Safari/537.36" etag="uaw2d59EYYHhQkcIWZ1u" version="14.4.4" type="github" pages="2">
  <diagram id="NQIwWuzuiooOlS3t7LjV" name="Page-1">
    <mxGraphModel dx="1422" dy="762" grid="1" gridSize="10" guides="1" tooltips="1" connect="1" arrows="1" fold="1" page="1" pageScale="1" pageWidth="850" pageHeight="1100" math="0" shadow="0">
      <root>
        <mxCell id="0" />
        <mxCell id="1" parent="0" />
        <mxCell id="0Jg1Mo7P6ndSY2v0z1tK-2" style="edgeStyle=orthogonalEdgeStyle;rounded=0;orthogonalLoop=1;jettySize=auto;html=1;exitX=0.5;exitY=1;exitDx=0;exitDy=0;" parent="1" source="0Jg1Mo7P6ndSY2v0z1tK-1" edge="1">
          <mxGeometry relative="1" as="geometry">
            <mxPoint x="180" y="180" as="targetPoint" />
          </mxGeometry>
        </mxCell>
        <mxCell id="0Jg1Mo7P6ndSY2v0z1tK-3" style="edgeStyle=orthogonalEdgeStyle;rounded=0;orthogonalLoop=1;jettySize=auto;html=1;exitX=0.5;exitY=1;exitDx=0;exitDy=0;" parent="1" source="0Jg1Mo7P6ndSY2v0z1tK-1" edge="1">
          <mxGeometry relative="1" as="geometry">
            <mxPoint x="300" y="180" as="targetPoint" />
          </mxGeometry>
        </mxCell>
        <mxCell id="0Jg1Mo7P6ndSY2v0z1tK-4" style="edgeStyle=orthogonalEdgeStyle;rounded=0;orthogonalLoop=1;jettySize=auto;html=1;exitX=0.5;exitY=1;exitDx=0;exitDy=0;" parent="1" source="0Jg1Mo7P6ndSY2v0z1tK-1" edge="1">
          <mxGeometry relative="1" as="geometry">
            <mxPoint x="60" y="180" as="targetPoint" />
          </mxGeometry>
        </mxCell>
        <mxCell id="0Jg1Mo7P6ndSY2v0z1tK-1" value="&lt;font style=&quot;font-size: 48px&quot;&gt;Start&lt;/font&gt;" style="rounded=1;whiteSpace=wrap;html=1;" parent="1" vertex="1">
          <mxGeometry x="80" y="40" width="200" height="80" as="geometry" />
        </mxCell>
        <mxCell id="0Jg1Mo7P6ndSY2v0z1tK-9" style="edgeStyle=orthogonalEdgeStyle;rounded=0;orthogonalLoop=1;jettySize=auto;html=1;exitX=0.5;exitY=1;exitDx=0;exitDy=0;" parent="1" source="0Jg1Mo7P6ndSY2v0z1tK-5" edge="1">
          <mxGeometry relative="1" as="geometry">
            <mxPoint x="180" y="300" as="targetPoint" />
          </mxGeometry>
        </mxCell>
        <mxCell id="0Jg1Mo7P6ndSY2v0z1tK-5" value="&lt;font&gt;&lt;font style=&quot;font-size: 18px&quot;&gt;Input&lt;/font&gt;&lt;br&gt;&lt;span style=&quot;font-size: 24px&quot;&gt;Age&lt;/span&gt;&lt;/font&gt;" style="shape=parallelogram;perimeter=parallelogramPerimeter;whiteSpace=wrap;html=1;fixedSize=1;" parent="1" vertex="1">
          <mxGeometry y="180" width="120" height="60" as="geometry" />
        </mxCell>
        <mxCell id="0Jg1Mo7P6ndSY2v0z1tK-8" style="edgeStyle=orthogonalEdgeStyle;rounded=0;orthogonalLoop=1;jettySize=auto;html=1;exitX=0.5;exitY=1;exitDx=0;exitDy=0;" parent="1" source="0Jg1Mo7P6ndSY2v0z1tK-6" edge="1">
          <mxGeometry relative="1" as="geometry">
            <mxPoint x="180" y="300" as="targetPoint" />
          </mxGeometry>
        </mxCell>
        <mxCell id="0Jg1Mo7P6ndSY2v0z1tK-6" value="&lt;font&gt;&lt;font style=&quot;font-size: 18px&quot;&gt;Input&lt;/font&gt;&lt;br&gt;&lt;span style=&quot;font-size: 24px&quot;&gt;Day&lt;/span&gt;&lt;/font&gt;" style="shape=parallelogram;perimeter=parallelogramPerimeter;whiteSpace=wrap;html=1;fixedSize=1;" parent="1" vertex="1">
          <mxGeometry x="120" y="180" width="120" height="60" as="geometry" />
        </mxCell>
        <mxCell id="0Jg1Mo7P6ndSY2v0z1tK-10" style="edgeStyle=orthogonalEdgeStyle;rounded=0;orthogonalLoop=1;jettySize=auto;html=1;exitX=0.5;exitY=1;exitDx=0;exitDy=0;" parent="1" source="0Jg1Mo7P6ndSY2v0z1tK-7" edge="1">
          <mxGeometry relative="1" as="geometry">
            <mxPoint x="180" y="300" as="targetPoint" />
          </mxGeometry>
        </mxCell>
        <mxCell id="0Jg1Mo7P6ndSY2v0z1tK-7" value="&lt;font&gt;&lt;font style=&quot;font-size: 18px&quot;&gt;Input&lt;/font&gt;&lt;br&gt;&lt;span style=&quot;font-size: 24px&quot;&gt;Movie&lt;/span&gt;&lt;/font&gt;" style="shape=parallelogram;perimeter=parallelogramPerimeter;whiteSpace=wrap;html=1;fixedSize=1;" parent="1" vertex="1">
          <mxGeometry x="240" y="180" width="120" height="60" as="geometry" />
        </mxCell>
        <mxCell id="0Jg1Mo7P6ndSY2v0z1tK-12" style="edgeStyle=orthogonalEdgeStyle;rounded=0;orthogonalLoop=1;jettySize=auto;html=1;exitX=0.5;exitY=1;exitDx=0;exitDy=0;" parent="1" source="0Jg1Mo7P6ndSY2v0z1tK-11" edge="1">
          <mxGeometry relative="1" as="geometry">
            <mxPoint x="180" y="450" as="targetPoint" />
          </mxGeometry>
        </mxCell>
        <mxCell id="jjbJh_03KbZPLyejdDNE-7" style="edgeStyle=orthogonalEdgeStyle;rounded=0;orthogonalLoop=1;jettySize=auto;html=1;exitX=1;exitY=0.5;exitDx=0;exitDy=0;entryX=0.5;entryY=0;entryDx=0;entryDy=0;" parent="1" source="0Jg1Mo7P6ndSY2v0z1tK-11" target="jjbJh_03KbZPLyejdDNE-6" edge="1">
          <mxGeometry relative="1" as="geometry" />
        </mxCell>
        <mxCell id="0Jg1Mo7P6ndSY2v0z1tK-11" value="&lt;font style=&quot;font-size: 14px&quot;&gt;If&amp;nbsp; Day = Tuesday&lt;/font&gt;" style="rhombus;whiteSpace=wrap;html=1;" parent="1" vertex="1">
          <mxGeometry x="105" y="300" width="150" height="80" as="geometry" />
        </mxCell>
        <mxCell id="jjbJh_03KbZPLyejdDNE-2" style="edgeStyle=orthogonalEdgeStyle;rounded=0;orthogonalLoop=1;jettySize=auto;html=1;exitX=0.5;exitY=1;exitDx=0;exitDy=0;" parent="1" source="0Jg1Mo7P6ndSY2v0z1tK-13" target="jjbJh_03KbZPLyejdDNE-3" edge="1">
          <mxGeometry relative="1" as="geometry">
            <mxPoint x="180" y="800" as="targetPoint" />
          </mxGeometry>
        </mxCell>
        <mxCell id="0Jg1Mo7P6ndSY2v0z1tK-13" value="&lt;font style=&quot;font-size: 14px&quot;&gt;Print &lt;br&gt;Price is $5.00&lt;/font&gt;" style="shape=parallelogram;perimeter=parallelogramPerimeter;whiteSpace=wrap;html=1;fixedSize=1;" parent="1" vertex="1">
          <mxGeometry x="105" y="450" width="150" height="60" as="geometry" />
        </mxCell>
        <mxCell id="jjbJh_03KbZPLyejdDNE-3" value="&lt;font style=&quot;font-size: 48px&quot;&gt;Finish&lt;/font&gt;" style="rounded=1;whiteSpace=wrap;html=1;" parent="1" vertex="1">
          <mxGeometry x="80" y="770" width="200" height="90" as="geometry" />
        </mxCell>
        <mxCell id="jjbJh_03KbZPLyejdDNE-9" style="edgeStyle=orthogonalEdgeStyle;rounded=0;orthogonalLoop=1;jettySize=auto;html=1;exitX=0.5;exitY=1;exitDx=0;exitDy=0;" parent="1" source="jjbJh_03KbZPLyejdDNE-6" edge="1">
          <mxGeometry relative="1" as="geometry">
            <mxPoint x="400" y="510" as="targetPoint" />
          </mxGeometry>
        </mxCell>
        <mxCell id="jjbJh_03KbZPLyejdDNE-13" style="edgeStyle=orthogonalEdgeStyle;rounded=0;orthogonalLoop=1;jettySize=auto;html=1;exitX=1;exitY=0.5;exitDx=0;exitDy=0;entryX=0.5;entryY=0;entryDx=0;entryDy=0;" parent="1" source="jjbJh_03KbZPLyejdDNE-6" target="jjbJh_03KbZPLyejdDNE-12" edge="1">
          <mxGeometry relative="1" as="geometry" />
        </mxCell>
        <mxCell id="jjbJh_03KbZPLyejdDNE-6" value="&lt;font style=&quot;font-size: 14px&quot;&gt;If&amp;nbsp; age is &amp;gt;=65&lt;/font&gt;" style="rhombus;whiteSpace=wrap;html=1;" parent="1" vertex="1">
          <mxGeometry x="320" y="360" width="160" height="80" as="geometry" />
        </mxCell>
        <mxCell id="GkHR_nlOWefs0-om9wr6-5" style="edgeStyle=orthogonalEdgeStyle;rounded=0;orthogonalLoop=1;jettySize=auto;html=1;exitX=0.5;exitY=1;exitDx=0;exitDy=0;" edge="1" parent="1" source="jjbJh_03KbZPLyejdDNE-10">
          <mxGeometry relative="1" as="geometry">
            <mxPoint x="405" y="800" as="targetPoint" />
          </mxGeometry>
        </mxCell>
        <mxCell id="jjbJh_03KbZPLyejdDNE-10" value="&lt;font style=&quot;font-size: 14px&quot;&gt;Print&lt;br&gt;Price is $10.00&lt;/font&gt;" style="shape=parallelogram;perimeter=parallelogramPerimeter;whiteSpace=wrap;html=1;fixedSize=1;" parent="1" vertex="1">
          <mxGeometry x="330" y="510" width="150" height="60" as="geometry" />
        </mxCell>
        <mxCell id="jjbJh_03KbZPLyejdDNE-16" style="edgeStyle=orthogonalEdgeStyle;rounded=0;orthogonalLoop=1;jettySize=auto;html=1;exitX=0.5;exitY=1;exitDx=0;exitDy=0;entryX=0.5;entryY=0;entryDx=0;entryDy=0;" parent="1" source="jjbJh_03KbZPLyejdDNE-12" target="jjbJh_03KbZPLyejdDNE-17" edge="1">
          <mxGeometry relative="1" as="geometry">
            <mxPoint x="600" y="630" as="targetPoint" />
          </mxGeometry>
        </mxCell>
        <mxCell id="jjbJh_03KbZPLyejdDNE-19" style="edgeStyle=orthogonalEdgeStyle;rounded=0;orthogonalLoop=1;jettySize=auto;html=1;exitX=1;exitY=0.5;exitDx=0;exitDy=0;entryX=0.5;entryY=0;entryDx=0;entryDy=0;" parent="1" source="jjbJh_03KbZPLyejdDNE-12" target="jjbJh_03KbZPLyejdDNE-18" edge="1">
          <mxGeometry relative="1" as="geometry" />
        </mxCell>
        <mxCell id="jjbJh_03KbZPLyejdDNE-12" value="&lt;font style=&quot;font-size: 14px&quot;&gt;If age is &amp;lt;=12&lt;/font&gt;" style="rhombus;whiteSpace=wrap;html=1;" parent="1" vertex="1">
          <mxGeometry x="520" y="500" width="160" height="80" as="geometry" />
        </mxCell>
        <mxCell id="GkHR_nlOWefs0-om9wr6-6" style="edgeStyle=orthogonalEdgeStyle;rounded=0;orthogonalLoop=1;jettySize=auto;html=1;exitX=0.5;exitY=1;exitDx=0;exitDy=0;" edge="1" parent="1" source="jjbJh_03KbZPLyejdDNE-17">
          <mxGeometry relative="1" as="geometry">
            <mxPoint x="600" y="800" as="targetPoint" />
          </mxGeometry>
        </mxCell>
        <mxCell id="jjbJh_03KbZPLyejdDNE-17" value="&lt;font style=&quot;font-size: 14px&quot;&gt;Print&lt;br&gt;Price is $8.00&lt;/font&gt;" style="shape=parallelogram;perimeter=parallelogramPerimeter;whiteSpace=wrap;html=1;fixedSize=1;" parent="1" vertex="1">
          <mxGeometry x="530" y="640" width="140" height="60" as="geometry" />
        </mxCell>
        <mxCell id="GkHR_nlOWefs0-om9wr6-8" style="edgeStyle=orthogonalEdgeStyle;rounded=0;orthogonalLoop=1;jettySize=auto;html=1;exitX=0.5;exitY=1;exitDx=0;exitDy=0;" edge="1" parent="1" source="jjbJh_03KbZPLyejdDNE-18">
          <mxGeometry relative="1" as="geometry">
            <mxPoint x="750" y="800" as="targetPoint" />
          </mxGeometry>
        </mxCell>
        <mxCell id="GkHR_nlOWefs0-om9wr6-9" style="edgeStyle=orthogonalEdgeStyle;rounded=0;orthogonalLoop=1;jettySize=auto;html=1;exitX=0.5;exitY=1;exitDx=0;exitDy=0;entryX=1;entryY=0.344;entryDx=0;entryDy=0;entryPerimeter=0;" edge="1" parent="1" source="jjbJh_03KbZPLyejdDNE-18" target="jjbJh_03KbZPLyejdDNE-3">
          <mxGeometry relative="1" as="geometry" />
        </mxCell>
        <mxCell id="jjbJh_03KbZPLyejdDNE-18" value="&lt;font style=&quot;font-size: 14px&quot;&gt;Print&lt;br&gt;Price is $13.00&lt;/font&gt;" style="shape=parallelogram;perimeter=parallelogramPerimeter;whiteSpace=wrap;html=1;fixedSize=1;" parent="1" vertex="1">
          <mxGeometry x="680" y="640" width="140" height="60" as="geometry" />
        </mxCell>
      </root>
    </mxGraphModel>
  </diagram>
  <diagram id="t906-aPsrgDppKymIgYh" name="Page-2">
    <mxGraphModel dx="1422" dy="882" grid="1" gridSize="10" guides="1" tooltips="1" connect="1" arrows="1" fold="1" page="1" pageScale="1" pageWidth="850" pageHeight="1100" math="0" shadow="0">
      <root>
        <mxCell id="S-hQPUUwY1ecI6BOtKBi-0" />
        <mxCell id="S-hQPUUwY1ecI6BOtKBi-1" parent="S-hQPUUwY1ecI6BOtKBi-0" />
      </root>
    </mxGraphModel>
  </diagram>
</mxfile>
